<?xml version="1.0" standalone="no"?>
<!DOCTYPE svg PUBLIC "-//W3C//DTD SVG 20010904//EN"
 "http://www.w3.org/TR/2001/REC-SVG-20010904/DTD/svg10.dtd">
<svg version="1.0" xmlns="http://www.w3.org/2000/svg"
 width="1018.000000pt" height="1018.000000pt" viewBox="0 0 1018.000000 1018.000000"
 preserveAspectRatio="xMidYMid meet">

<g transform="translate(0.000000,1018.000000) scale(0.100000,-0.100000)"
fill="#000000" stroke="none">
<path d="M5255 10053 c-480 -30 -882 -130 -1000 -249 -70 -70 -36 -159 73
-190 l57 -17 -85 -23 c-246 -67 -468 -189 -640 -351 -135 -127 -216 -259 -240
-393 -34 -188 70 -353 239 -379 l46 -7 -95 -45 c-171 -81 -293 -175 -420 -321
-134 -155 -209 -288 -279 -495 -128 -378 -112 -644 44 -714 103 -47 199 0 266
132 42 85 59 157 69 304 11 152 31 236 66 283 57 74 214 163 292 165 45 2 47
1 50 -26 2 -16 -8 -51 -22 -80 -180 -370 -223 -533 -212 -807 9 -241 55 -371
170 -477 135 -125 251 -136 339 -32 77 89 84 187 32 433 -46 221 -46 256 4
332 63 97 169 194 213 194 14 0 11 -16 -19 -117 -85 -285 -83 -443 6 -580 65
-100 148 -153 251 -161 53 -3 74 0 106 16 50 25 112 92 119 129 28 134 83 250
157 331 311 341 891 296 1465 -114 388 -278 642 -663 714 -1082 26 -155 26
-366 -1 -530 -55 -335 -174 -769 -282 -1027 l-34 -80 -119 -60 c-66 -33 -166
-76 -221 -95 l-102 -34 -128 32 c-207 52 -434 79 -731 89 l-191 6 -100 -61
c-121 -75 -288 -157 -360 -178 -48 -14 -62 -14 -160 1 -256 40 -597 118 -804
185 -52 16 -98 30 -101 30 -3 0 -9 -20 -12 -43 -4 -24 -11 -50 -15 -58 -10
-15 -7 -15 -225 35 -60 14 -156 34 -213 43 -95 16 -106 16 -130 2 -15 -9 -81
-49 -147 -89 -129 -79 -263 -143 -395 -189 l-83 -29 -71 34 c-39 19 -78 34
-87 34 -10 0 -54 16 -99 35 -164 70 -367 132 -491 150 -43 6 -50 4 -94 -30
-90 -69 -251 -138 -412 -179 -216 -55 -520 -93 -635 -80 l-57 6 -54 77 c-113
159 -179 278 -289 526 l-57 130 -1 -82 c0 -88 23 -226 71 -418 37 -149 101
-367 105 -362 2 2 -9 70 -26 152 -44 218 -45 217 64 74 303 -400 671 -786
1006 -1054 122 -98 378 -269 500 -334 333 -176 700 -253 1270 -268 943 -23
1953 203 2507 562 151 98 241 182 512 480 507 557 712 926 881 1590 49 191 84
364 110 535 23 150 36 184 26 70 -3 -41 -11 -147 -16 -235 -60 -962 -232
-1439 -729 -2025 -105 -124 -329 -345 -467 -462 -176 -149 -343 -255 -484
-306 -81 -30 -160 -43 -159 -28 0 6 47 51 104 100 100 86 122 111 75 86 -43
-23 -458 -183 -638 -246 l-183 -64 -132 0 c-193 0 -307 -31 -395 -105 -75 -63
-356 -171 -619 -239 l-142 -36 -113 10 c-548 52 -1084 211 -1658 492 -292 144
-665 377 -944 592 l-138 107 94 -183 c112 -216 184 -338 324 -548 189 -283
175 -271 499 -433 302 -152 497 -223 685 -252 199 -31 779 -28 1034 6 259 34
528 138 896 345 85 48 189 103 230 123 l75 36 310 -3 c419 -4 865 28 1070 77
476 115 896 474 1228 1051 57 101 55 74 -10 -90 -136 -344 -373 -746 -547
-929 -147 -153 -486 -384 -878 -597 -121 -66 -136 -77 -88 -68 186 36 525 207
752 380 213 163 475 480 652 788 326 567 503 1196 523 1864 3 112 10 197 14
190 13 -23 77 -277 89 -353 6 -38 14 -129 19 -200 8 -136 19 -175 49 -175 49
0 146 140 276 396 86 170 166 298 197 317 9 6 24 7 33 4 14 -6 16 -21 14 -114
-3 -104 -4 -108 -24 -105 -59 8 -169 -226 -329 -698 -125 -369 -171 -482 -301
-743 -158 -316 -330 -590 -520 -829 -133 -167 -368 -401 -544 -540 -196 -156
-269 -238 -212 -238 27 0 156 65 251 127 70 45 230 162 251 183 3 3 32 27 65
55 33 27 120 108 194 180 388 379 680 832 877 1360 12 33 48 82 108 149 49 55
87 92 84 81 -4 -11 -36 -93 -72 -182 -103 -252 -101 -274 17 -138 98 113 168
223 229 359 72 160 104 171 57 20 -29 -93 -63 -160 -181 -351 -58 -94 -110
-193 -125 -235 -17 -49 -43 -95 -77 -138 -107 -133 -210 -298 -299 -475 -62
-123 -137 -229 -253 -355 -109 -118 -290 -288 -409 -382 -55 -44 -111 -89
-125 -101 -38 -32 -284 -206 -380 -268 -176 -114 -428 -245 -546 -284 -122
-41 -230 -98 -219 -116 14 -22 227 6 441 56 124 29 133 30 141 9 23 -60 -346
-274 -662 -382 -210 -72 -332 -101 -555 -131 -553 -75 -1152 -107 -1528 -82
-190 12 -212 18 -409 101 -161 68 -176 80 -87 67 119 -17 570 -13 739 7 458
53 818 123 968 190 63 28 137 90 137 116 0 28 -24 32 -188 31 -163 -1 -192 5
-192 42 0 22 35 97 50 107 4 3 45 56 92 118 136 179 186 304 175 433 -7 81
-11 100 -23 99 -26 -1 -46 -16 -105 -82 -136 -152 -186 -202 -251 -248 -131
-92 -348 -168 -510 -177 -80 -5 -102 -3 -123 11 -34 23 -32 43 15 105 66 87
53 139 -28 114 -512 -154 -1116 -163 -1662 -24 -183 46 -380 116 -504 178
l-90 45 43 -51 c88 -105 451 -430 606 -542 41 -30 62 -38 115 -43 175 -17 750
-78 865 -92 170 -21 380 -15 525 16 58 12 179 46 270 76 205 66 279 84 308 73
32 -12 27 -30 -20 -75 -115 -110 -352 -219 -587 -270 -94 -21 -446 -24 -621
-5 -168 18 -394 46 -455 57 -37 7 53 -51 232 -150 586 -322 1243 -523 1935
-592 321 -33 776 -24 1126 22 1108 144 2152 669 2942 1480 632 650 1074 1442
1293 2321 285 1140 172 2337 -322 3400 -387 835 -1016 1571 -1776 2080 -302
202 -682 399 -999 517 -261 98 -653 177 -1020 206 -117 9 -487 11 -611 3z
m525 -123 c632 -36 1244 -219 1796 -535 646 -371 1222 -939 1631 -1610 115
-188 293 -523 293 -550 0 -3 12 -30 26 -62 43 -93 118 -288 163 -420 253 -753
329 -1524 225 -2303 -33 -243 -121 -660 -141 -660 -3 0 -3 7 0 15 9 23 46 278
63 435 21 201 30 731 15 950 -32 466 -110 978 -197 1280 -9 30 -23 80 -30 110
-44 168 -165 496 -257 692 -139 297 -326 576 -416 622 -73 38 -81 -55 -26
-272 51 -195 39 -239 -74 -282 -78 -29 -90 -54 -66 -136 23 -78 42 -114 147
-279 188 -292 223 -382 222 -570 0 -112 -3 -127 -36 -218 -31 -86 -34 -103
-27 -149 5 -28 14 -128 20 -222 31 -452 -38 -957 -178 -1311 -46 -119 -205
-441 -338 -690 -177 -329 -180 -343 -77 -360 47 -8 95 -42 117 -84 29 -58 48
-190 41 -294 -19 -296 -117 -517 -373 -847 -396 -508 -713 -847 -1043 -1115
-295 -239 -506 -357 -830 -465 -192 -64 -552 -152 -566 -137 -2 2 47 23 110
46 323 120 635 308 1016 612 499 398 1076 1037 1362 1509 183 302 193 519 29
603 -86 43 -193 36 -248 -15 -13 -12 -26 -19 -29 -15 -3 3 13 48 36 99 178
396 259 595 385 944 169 467 254 797 296 1149 19 159 16 474 -5 614 -47 314
-149 572 -273 696 -52 52 -133 96 -164 88 -31 -8 -40 -66 -29 -179 21 -208 24
-271 10 -279 -18 -11 -46 25 -88 115 -148 322 -218 441 -360 610 -405 484
-1051 761 -1832 787 -451 14 -840 -88 -1114 -294 -236 -177 -355 -450 -356
-818 0 -132 -9 -158 -66 -196 -101 -66 -258 40 -300 202 -24 94 -14 202 36
374 71 245 66 283 -36 272 -28 -3 -69 -14 -91 -25 -93 -48 -203 -169 -257
-282 -27 -57 -31 -75 -30 -150 0 -54 8 -120 23 -180 13 -52 24 -126 24 -165 3
-241 -195 -261 -308 -31 -82 166 -95 417 -34 651 19 76 75 200 171 380 37 70
43 88 43 142 0 55 -3 66 -28 90 -25 25 -34 28 -95 28 -49 0 -83 -7 -128 -26
-79 -33 -198 -112 -252 -168 -77 -79 -98 -138 -112 -323 -6 -69 -19 -155 -30
-190 -24 -78 -71 -155 -105 -170 -84 -38 -129 176 -90 420 34 208 106 364 251
546 213 265 399 387 799 525 321 110 399 141 427 168 53 50 47 118 -18 215
-40 59 -41 58 56 88 146 46 260 -27 260 -167 0 -59 -32 -118 -128 -238 -44
-55 -78 -102 -77 -103 7 -7 92 57 162 122 81 75 123 147 123 211 0 138 -119
264 -281 298 -177 37 -248 -8 -561 -355 -104 -114 -177 -158 -263 -158 -137 0
-223 144 -182 303 47 178 253 370 551 513 149 72 279 115 483 159 241 53 313
84 284 119 -17 20 -89 34 -233 47 -135 11 -191 29 -186 56 12 63 326 141 708
177 273 26 417 30 660 16z m-1478 -1107 c24 -27 50 -63 57 -81 12 -29 12 -35
-2 -49 -15 -15 -428 -175 -435 -168 -2 2 14 20 36 40 22 20 93 96 158 170 64
74 122 135 129 135 7 0 32 -21 57 -47z m2318 -4902 c0 -5 -15 -34 -32 -65 -29
-49 -41 -59 -99 -85 -187 -84 -365 -132 -619 -166 -282 -38 -468 -49 -724 -42
-309 8 -498 35 -846 119 -211 50 -300 68 -316 61 -10 -3 -13 -20 -12 -53 1
-30 -3 -54 -12 -65 -8 -10 -55 -37 -105 -61 -103 -49 -140 -81 -130 -113 3
-12 15 -26 26 -31 11 -6 19 -21 19 -35 0 -53 -115 -100 -228 -93 -65 4 -66 5
-112 57 -55 63 -45 62 -240 11 l-125 -33 -63 37 c-35 21 -60 41 -55 45 4 4 33
13 63 20 175 42 436 143 544 211 75 48 155 130 186 191 12 24 24 45 25 47 2 2
49 -10 106 -27 336 -97 973 -203 1309 -217 397 -17 953 91 1355 264 79 34 85
36 85 23z m-4207 -332 c115 -58 383 -207 559 -310 156 -92 256 -141 353 -172
281 -91 553 -122 999 -115 l280 5 -38 -33 c-21 -18 -108 -68 -194 -110 l-157
-78 -119 -10 c-143 -12 -321 3 -410 34 -77 26 -103 25 -178 -5 -75 -31 -144
-32 -216 -5 -57 22 -103 25 -132 10 -10 -6 -40 -38 -66 -73 -53 -69 -72 -88
-129 -133 -37 -28 -122 -74 -138 -74 -15 0 -5 35 33 111 59 117 74 183 61 270
-10 64 -43 153 -61 164 -4 2 -18 -7 -30 -20 -27 -29 -65 -32 -98 -9 -28 19
-67 95 -76 149 -24 131 -95 137 -157 12 -71 -140 -200 -292 -283 -331 -77 -36
-72 9 20 196 55 113 65 159 41 193 -21 28 -58 12 -119 -51 -100 -106 -236
-184 -390 -226 -73 -20 -106 -23 -268 -23 -165 1 -197 3 -299 28 l-114 27
-135 137 c-151 155 -238 253 -225 253 4 0 48 -14 97 -30 100 -34 240 -71 371
-97 67 -13 138 -17 280 -18 177 0 197 2 290 28 108 30 237 87 313 139 62 42
167 143 193 185 11 18 25 33 30 33 5 0 55 -23 112 -51z m3071 -333 c179 -46
297 -58 438 -45 60 5 127 13 149 18 24 5 39 5 39 -1 0 -5 -41 -51 -90 -102
-103 -106 -95 -103 -307 -135 -174 -28 -177 -29 -147 -62 23 -26 11 -65 -35
-111 -43 -42 -63 -46 -117 -21 -36 18 -37 18 -53 -7 -52 -81 -119 -130 -175
-130 -31 0 -39 12 -27 43 9 24 9 24 -30 13 -21 -5 -41 -7 -44 -4 -4 3 -6 24
-7 47 l0 41 -31 -26 c-56 -47 -131 -77 -149 -59 -3 3 3 33 13 66 28 89 25 179
-6 179 -7 0 -30 -21 -51 -47 -114 -144 -310 -269 -604 -385 -237 -94 -401
-136 -642 -163 -222 -25 -472 -17 -308 10 25 4 128 31 230 60 379 109 829 291
1035 420 120 75 245 216 318 362 l26 51 73 12 c40 6 80 13 88 15 8 2 74 2 145
0 106 -3 155 -11 269 -39z"/>
<path d="M2770 8284 c-147 -23 -265 -75 -355 -157 -146 -132 -157 -279 -30
-396 39 -36 50 -41 92 -41 53 0 90 18 141 70 41 41 63 83 103 200 17 52 51
141 76 199 24 58 45 111 46 116 2 11 -33 15 -73 9z m-79 -161 c-16 -32 -38
-88 -49 -125 -37 -118 -99 -220 -140 -230 -57 -15 -122 65 -122 148 1 123 160
257 313 263 l27 1 -29 -57z"/>
<path d="M3751 5790 c-89 -126 -131 -265 -131 -431 0 -146 24 -224 89 -289 62
-62 124 -83 231 -78 123 5 170 50 178 171 7 107 -15 168 -112 322 -96 152
-196 326 -196 343 0 30 -21 16 -59 -38z m77 -200 c17 -38 58 -106 89 -152 63
-92 123 -225 123 -276 0 -80 -54 -118 -144 -101 -57 10 -77 21 -126 66 -104
93 -111 325 -16 488 15 25 30 45 34 45 4 0 22 -32 40 -70z"/>
</g>
</svg>
